<svg xmlns="http://www.w3.org/2000/svg" xmlns:xlink="http://www.w3.org/1999/xlink" width="20" height="20" viewBox="0 0 20 20"><defs><style>.a,.c{fill:#8b8b8b;}.a{stroke:#707070;}.b{clip-path:url(#a);}</style><clipPath id="a"><rect class="a" width="20" height="20" transform="translate(1086 991)"/></clipPath></defs><g class="b" transform="translate(-1086 -991)"><g transform="translate(1086 991)"><path class="c" d="M3.317,16.658a9.391,9.391,0,0,0,10,2.135,2.35,2.35,0,0,1-1-1.921V16.56A6.95,6.95,0,0,1,3.169,8.481,7.046,7.046,0,0,1,4.319,5.919V7.529a.985.985,0,0,0,1.97,0V3.194A.988.988,0,0,0,5.3,2.208H4.713L.985,2.192a.985.985,0,0,0,0,1.97H2.594a9.383,9.383,0,0,0,.722,12.5Z"/><path class="c" d="M14.68,17.873h4.335a.985.985,0,0,0,0-1.97H17.307a8.168,8.168,0,0,0,.9-1.363A9.421,9.421,0,0,0,6.6,1.207a2.37,2.37,0,0,1,1.067,1.97v.246A6.984,6.984,0,0,1,16.781,11.5a6.825,6.825,0,0,1-1.116,2.529V12.553a.985.985,0,1,0-1.97,0V16.9A.985.985,0,0,0,14.68,17.873Z"/></g></g></svg>