<svg xmlns="http://www.w3.org/2000/svg" xmlns:xlink="http://www.w3.org/1999/xlink" width="30" height="30" viewBox="0 0 30 30"><defs><style>.a,.c{fill:#6c6e7f;}.a{stroke:#707070;}.b{clip-path:url(#a);}</style><clipPath id="a"><rect class="a" width="30" height="30" transform="translate(39 135)"/></clipPath></defs><g class="b" transform="translate(-39 -135)"><g transform="translate(39 135)"><path class="c" d="M28.532,6.608V.85a.857.857,0,0,0-.346-.685.865.865,0,0,0-.761-.126L10.269,5.489a.851.851,0,0,0-.591.811V23.091a5.742,5.742,0,0,0-3.256-.962A5.718,5.718,0,0,0,3.009,23.2a3.426,3.426,0,0,0,0,5.721A5.7,5.7,0,0,0,6.422,30a5.7,5.7,0,0,0,3.414-1.075,3.569,3.569,0,0,0,1.54-2.86V12.687L26.834,7.771v9.845a5.975,5.975,0,0,0-6.67.113,3.426,3.426,0,0,0,0,5.721,5.957,5.957,0,0,0,6.827,0,3.569,3.569,0,0,0,1.54-2.86V6.608ZM6.422,28.3c-1.766,0-3.256-1.025-3.256-2.238s1.49-2.238,3.256-2.238,3.256,1.025,3.256,2.238S8.189,28.3,6.422,28.3Zm4.954-17.4V6.916l15.458-4.91V5.992ZM23.584,22.827c-1.766,0-3.256-1.025-3.256-2.238s1.49-2.238,3.256-2.238,3.256,1.025,3.256,2.238S25.344,22.827,23.584,22.827Z"/></g></g></svg>