<svg xmlns="http://www.w3.org/2000/svg" xmlns:xlink="http://www.w3.org/1999/xlink" width="30" height="30" viewBox="0 0 30 30"><defs><style>.a,.c{fill:#6ac8d0;}.a{stroke:#707070;}.b{clip-path:url(#a);}</style><clipPath id="a"><rect class="a" width="30" height="30" transform="translate(1768 24)"/></clipPath></defs><g class="b" transform="translate(-1768 -24)"><g transform="translate(1768 24.714)"><path class="c" d="M13.8,16.63A8.017,8.017,0,1,0,5.768,8.6,8.031,8.031,0,0,0,13.8,16.63Zm0-13.941A5.911,5.911,0,1,1,7.886,8.6,5.929,5.929,0,0,1,13.8,2.689Z" transform="translate(1.154 -0.595)"/><path class="c" d="M1.059,26.26H28.941A1.051,1.051,0,0,0,30,25.2,10.086,10.086,0,0,0,19.926,15.127H10.074A10.086,10.086,0,0,0,0,25.2,1.051,1.051,0,0,0,1.059,26.26Zm9.015-9.015h9.852a7.951,7.951,0,0,1,7.882,6.9H2.192A7.972,7.972,0,0,1,10.074,17.245Z" transform="translate(0 2.311)"/></g></g></svg>