<svg xmlns="http://www.w3.org/2000/svg" xmlns:xlink="http://www.w3.org/1999/xlink" width="30" height="30" viewBox="0 0 30 30"><defs><style>.a,.c{fill:#6c6e7f;}.a{stroke:#707070;}.b{clip-path:url(#a);}</style><clipPath id="a"><rect class="a" width="30" height="30" transform="translate(1650 998)"/></clipPath></defs><g class="b" transform="translate(-1650 -998)"><g transform="translate(1650 998)"><path class="c" d="M28.5,25.893H8.443a1.5,1.5,0,1,1,0-2.994H28.5a1.5,1.5,0,0,1,0,2.994Z"/><path class="c" d="M28.5,16.5H8.443a1.5,1.5,0,1,1,0-2.994H28.5a1.5,1.5,0,0,1,0,2.994Z"/><path class="c" d="M28.5,7.1H8.443a1.5,1.5,0,1,1,0-2.994H28.5a1.5,1.5,0,0,1,0,2.994Z"/><circle class="c" cx="2.01" cy="2.01" r="2.01" transform="translate(0 3.709)"/><circle class="c" cx="2.01" cy="2.01" r="2.01" transform="translate(0 12.99)"/><circle class="c" cx="2.01" cy="2.01" r="2.01" transform="translate(0 22.27)"/></g></g></svg>