<svg xmlns="http://www.w3.org/2000/svg" xmlns:xlink="http://www.w3.org/1999/xlink" width="100" height="100" viewBox="0 0 100 100"><defs><style>.a,.c{fill:#6ac8d0;}.a{stroke:#707070;}.b{clip-path:url(#a);}</style><clipPath id="a"><rect class="a" width="100" height="100" transform="translate(2139 -295)"/></clipPath></defs><g class="b" transform="translate(-2139 295)"><g transform="translate(2139 -279.691)"><path class="c" d="M2.229,63.924A2.229,2.229,0,0,0,0,66.153v7.371a2.229,2.229,0,1,0,4.459,0V66.153A2.229,2.229,0,0,0,2.229,63.924Z" transform="translate(0 -35.148)"/><path class="c" d="M14.824,63.924a2.229,2.229,0,0,0-2.229,2.229v7.371a2.229,2.229,0,1,0,4.459,0V66.153A2.229,2.229,0,0,0,14.824,63.924Z" transform="translate(-3.909 -35.148)"/><path class="c" d="M27.418,59.4a2.229,2.229,0,0,0-2.229,2.229V75.239a2.229,2.229,0,0,0,4.459,0V61.631A2.229,2.229,0,0,0,27.418,59.4Z" transform="translate(-7.817 -33.744)"/><path class="c" d="M40.011,54.058a2.229,2.229,0,0,0-2.229,2.229V77.266a2.229,2.229,0,1,0,4.459,0V56.287A2.229,2.229,0,0,0,40.011,54.058Z" transform="translate(-11.726 -32.086)"/><path class="c" d="M52.606,44.6a2.229,2.229,0,0,0-2.229,2.229v34.02a2.229,2.229,0,1,0,4.459,0V46.832A2.229,2.229,0,0,0,52.606,44.6Z" transform="translate(-15.634 -29.151)"/><path class="c" d="M65.2,22.2a2.229,2.229,0,0,0-2.229,2.229V89.35a2.229,2.229,0,1,0,4.459,0V24.428A2.229,2.229,0,0,0,65.2,22.2Z" transform="translate(-19.543 -22.198)"/><path class="c" d="M77.794,30.214a2.229,2.229,0,0,0-2.229,2.229V86.31a2.229,2.229,0,0,0,4.459,0V32.444A2.229,2.229,0,0,0,77.794,30.214Z" transform="translate(-23.451 -24.686)"/><path class="c" d="M90.388,46.247a2.229,2.229,0,0,0-2.229,2.229V80.229a2.229,2.229,0,0,0,4.459,0V48.476A2.229,2.229,0,0,0,90.388,46.247Z" transform="translate(-27.36 -29.662)"/><path class="c" d="M102.983,55.907a2.229,2.229,0,0,0-2.229,2.229V76.564a2.229,2.229,0,0,0,4.459,0V58.136A2.229,2.229,0,0,0,102.983,55.907Z" transform="translate(-31.268 -32.66)"/><path class="c" d="M115.577,60.018a2.229,2.229,0,0,0-2.229,2.229V75.005a2.229,2.229,0,1,0,4.459,0V62.248A2.229,2.229,0,0,0,115.577,60.018Z" transform="translate(-35.177 -33.936)"/><path class="c" d="M128.171,63.924a2.229,2.229,0,0,0-2.229,2.229v7.371a2.229,2.229,0,1,0,4.459,0V66.153A2.229,2.229,0,0,0,128.171,63.924Z" transform="translate(-39.085 -35.148)"/><path class="c" d="M140.764,63.924a2.229,2.229,0,0,0-2.229,2.229v7.371a2.229,2.229,0,1,0,4.459,0V66.153A2.229,2.229,0,0,0,140.764,63.924Z" transform="translate(-42.994 -35.148)"/></g></g></svg>