<svg xmlns="http://www.w3.org/2000/svg" xmlns:xlink="http://www.w3.org/1999/xlink" width="20" height="20" viewBox="0 0 20 20"><defs><style>.a,.c{fill:#8b8b8b;}.a{stroke:#707070;}.b{clip-path:url(#a);}</style><clipPath id="a"><rect class="a" width="20" height="20" transform="translate(1021 991)"/></clipPath></defs><g class="b" transform="translate(-1021 -991)"><g transform="translate(1021 991)"><path class="c" d="M17.581,0H15.645a.971.971,0,0,0-.968.968V19.032a.971.971,0,0,0,.968.968h1.935a.971.971,0,0,0,.968-.968V.968A.971.971,0,0,0,17.581,0Z"/><path class="c" d="M12.194,10.677a.964.964,0,0,0,0-1.355L3.129.29A.984.984,0,0,0,1.452.968V19.032a.984.984,0,0,0,1.677.677Z"/></g></g></svg>