<svg xmlns="http://www.w3.org/2000/svg" xmlns:xlink="http://www.w3.org/1999/xlink" width="20" height="20" viewBox="0 0 20 20"><defs><style>.a{fill:#fff;stroke:#707070;}.b{clip-path:url(#a);}.c{fill:#333;}</style><clipPath id="a"><rect class="a" width="20" height="20" transform="translate(482 248)"/></clipPath></defs><g class="b" transform="translate(-482 -248)"><g transform="translate(482 248)"><path class="c" d="M8.649,19.279A.721.721,0,0,1,7.928,20H3.964a.721.721,0,0,1-.721-.721V.721A.721.721,0,0,1,3.964,0H7.928a.721.721,0,0,1,.721.721V19.279Z"/><path class="c" d="M16.757,19.279a.721.721,0,0,1-.721.721H12.072a.721.721,0,0,1-.721-.721V.721A.721.721,0,0,1,12.072,0h3.964a.721.721,0,0,1,.721.721Z"/></g></g></svg>