<svg xmlns="http://www.w3.org/2000/svg" xmlns:xlink="http://www.w3.org/1999/xlink" width="20" height="20" viewBox="0 0 20 20"><defs><style>.a,.c{fill:#8b8b8b;}.a{stroke:#707070;}.b{clip-path:url(#a);}</style><clipPath id="a"><rect class="a" width="20" height="20" transform="translate(886 991)"/></clipPath></defs><g class="b" transform="translate(-886 -991)"><g transform="translate(886 991)"><path class="c" d="M4.355,0H2.419a.971.971,0,0,0-.968.968V19.032A.971.971,0,0,0,2.419,20H4.355a.971.971,0,0,0,.968-.968V.968A.971.971,0,0,0,4.355,0Z"/><path class="c" d="M18.548,19.032V.968A.984.984,0,0,0,16.871.29L7.823,9.323a.949.949,0,0,0,0,1.355l9.065,9.032A.974.974,0,0,0,18.548,19.032Z"/></g></g></svg>