<svg xmlns="http://www.w3.org/2000/svg" xmlns:xlink="http://www.w3.org/1999/xlink" width="30" height="30" viewBox="0 0 30 30"><defs><style>.a,.c{fill:#6c6e7f;}.a{stroke:#707070;}.b{clip-path:url(#a);}</style><clipPath id="a"><rect class="a" width="30" height="30" transform="translate(39 183)"/></clipPath></defs><g class="b" transform="translate(-39 -183)"><g transform="translate(39 183)"><path class="c" d="M15.007,5.058a3.351,3.351,0,1,0,3.351,3.351A3.355,3.355,0,0,0,15.007,5.058Zm0,4.8a1.454,1.454,0,1,1,1.454-1.454A1.456,1.456,0,0,1,15.007,9.863Z"/><path class="c" d="M11.283,4.685A.948.948,0,0,0,9.943,3.344a7.171,7.171,0,0,0,0,10.129.948.948,0,1,0,1.341-1.341A5.272,5.272,0,0,1,11.283,4.685Z"/><path class="c" d="M20.072,3.344a.948.948,0,1,0-1.341,1.341,5.253,5.253,0,0,1,0,7.447.948.948,0,1,0,1.341,1.341,7.149,7.149,0,0,0,0-10.129Z"/><path class="c" d="M5.389,8.425A9.567,9.567,0,0,1,8.217,1.619.948.948,0,0,0,6.876.278a11.5,11.5,0,0,0,0,16.293A.948.948,0,1,0,8.217,15.23,9.567,9.567,0,0,1,5.389,8.425Z"/><path class="c" d="M23.138.278A.948.948,0,0,0,21.8,1.619a9.636,9.636,0,0,1,0,13.611.948.948,0,1,0,1.341,1.341A11.534,11.534,0,0,0,23.138.278Z"/><rect class="c" width="1.897" height="14.038" transform="matrix(0.714, -0.7, 0.7, 0.714, 11.23, 17.578)"/><rect class="c" width="14.062" height="1.897" transform="translate(7.599 26.271) rotate(-45.454)"/><path class="c" d="M23.392,28.73,16.785,10.364A.948.948,0,0,0,15,11.006l6.607,18.367a.948.948,0,1,0,1.785-.642Z"/><path class="c" d="M14.476,9.792a.95.95,0,0,0-1.214.57L6.623,28.729a.948.948,0,1,0,1.784.645l6.638-18.367A.948.948,0,0,0,14.476,9.792Z"/></g></g></svg>