<svg xmlns="http://www.w3.org/2000/svg" xmlns:xlink="http://www.w3.org/1999/xlink" width="20" height="20" viewBox="0 0 20 20"><defs><style>.a,.c{fill:#8b8b8b;}.a{stroke:#707070;}.b{clip-path:url(#a);}</style><clipPath id="a"><rect class="a" width="20" height="20" transform="translate(821 991)"/></clipPath></defs><g class="b" transform="translate(-821 -991)"><g transform="translate(821 991)"><path class="c" d="M17.153,10.785A1.214,1.214,0,0,0,15.435,12.5l.436.436-.621,0a3.96,3.96,0,0,1-3.126-1.772L11.355,10l.769-1.159A3.958,3.958,0,0,1,15.25,7.069l.621,0-.436.436a1.214,1.214,0,0,0,1.718,1.717L19.662,6.71a1.262,1.262,0,0,0,0-1.717l-2.55-2.552a1.214,1.214,0,0,0-1.718,1.717l.477.477-.621-.006a6.408,6.408,0,0,0-5.159,2.865l-.205.313L9.682,7.5A6.414,6.414,0,0,0,4.34,4.627H1.218a1.218,1.218,0,0,0,0,2.436H4.34A3.962,3.962,0,0,1,7.652,8.842L8.421,10,7.652,11.16A3.964,3.964,0,0,1,4.34,12.939H1.218a1.218,1.218,0,1,0,0,2.436H4.34a6.414,6.414,0,0,0,5.341-2.869l.205-.311.205.311a6.408,6.408,0,0,0,5.159,2.865l.621-.006-.477.477a1.214,1.214,0,0,0,1.718,1.717l2.55-2.55a1.26,1.26,0,0,0,0-1.718S17.153,10.785,17.153,10.785Z"/></g></g></svg>