<svg xmlns="http://www.w3.org/2000/svg" xmlns:xlink="http://www.w3.org/1999/xlink" width="20" height="20" viewBox="0 0 20 20"><defs><style>.a,.c{fill:#6c6e7f;}.a{stroke:#707070;}.b{clip-path:url(#a);}</style><clipPath id="a"><rect class="a" width="20" height="20" transform="translate(245 976)"/></clipPath></defs><g class="b" transform="translate(-245 -976)"><g transform="translate(245 976.743)"><g transform="translate(0)"><path class="c" d="M.906,14.26A9.58,9.58,0,0,1,.538,7.027a9.2,9.2,0,0,1,17.075-.97l1.02-2.935a.7.7,0,0,1,.9-.437.722.722,0,0,1,.428.917L18.323,8.312a.715.715,0,0,1-.36.408.691.691,0,0,1-.538.028L12.555,6.985a.722.722,0,0,1-.428-.917.7.7,0,0,1,.9-.437l3.409,1.234a7.809,7.809,0,0,0-14.569.642A8.08,8.08,0,0,0,6.648,17.755a7.757,7.757,0,0,0,8.39-2.1.693.693,0,0,1,.994-.037.728.728,0,0,1,.036,1.015,9.182,9.182,0,0,1-6.79,3.019,9.089,9.089,0,0,1-3.1-.546A9.275,9.275,0,0,1,.906,14.26Z" transform="translate(0 -0.728)"/></g></g></g></svg>