<svg xmlns="http://www.w3.org/2000/svg" xmlns:xlink="http://www.w3.org/1999/xlink" width="30" height="30" viewBox="0 0 30 30"><defs><style>.a,.c{fill:#6c6e7f;}.a{stroke:#707070;}.b{clip-path:url(#a);}</style><clipPath id="a"><rect class="a" width="30" height="30" transform="translate(1715 1003)"/></clipPath></defs><g class="b" transform="translate(-1715 -1003)"><g transform="translate(1715 1006.411)"><path class="c" d="M17.474,2.274A11.574,11.574,0,0,0,7.689,7.649H3.26A3.26,3.26,0,0,0,0,10.909v5.907a3.26,3.26,0,0,0,3.26,3.26H7.689a11.574,11.574,0,0,0,9.786,5.375.832.832,0,0,0,.835-.835V3.109A.836.836,0,0,0,17.474,2.274ZM7.324,18.406H3.26a1.589,1.589,0,0,1-1.59-1.59V10.909A1.589,1.589,0,0,1,3.26,9.32H7.324Zm9.315,5.344a9.969,9.969,0,0,1-7.645-4.738V8.72a9.969,9.969,0,0,1,7.645-4.738Z" transform="translate(0 -2.274)"/><path class="c" d="M14.826,5.739a.836.836,0,1,0-.953,1.373,6.217,6.217,0,0,1,0,10.206.841.841,0,0,0-.21,1.163.837.837,0,0,0,1.163.21,7.89,7.89,0,0,0,0-12.953Z" transform="translate(6.756 -0.618)"/><path class="c" d="M16.978,3.434a.836.836,0,0,0-.953,1.373,10.418,10.418,0,0,1,0,17.109.841.841,0,0,0-.21,1.163.837.837,0,0,0,1.163.21,12.091,12.091,0,0,0,0-19.856Z" transform="translate(7.832 -1.77)"/></g></g></svg>